<svg width="1200" height="1600" viewBox="0 0 1200 1600" fill="none" xmlns="http://www.w3.org/2000/svg">
  <defs>
    <linearGradient id="bg" x1="120" y1="120" x2="980" y2="1420" gradientUnits="userSpaceOnUse">
      <stop offset="0" stop-color="#0F172A"/>
      <stop offset="0.55" stop-color="#111827"/>
      <stop offset="1" stop-color="#020617"/>
    </linearGradient>
    <radialGradient id="glowA" cx="0" cy="0" r="1" gradientUnits="userSpaceOnUse" gradientTransform="translate(650 360) rotate(90) scale(440 500)">
      <stop stop-color="#60A5FA" stop-opacity="0.45"/>
      <stop offset="1" stop-color="#60A5FA" stop-opacity="0"/>
    </radialGradient>
    <radialGradient id="glowB" cx="0" cy="0" r="1" gradientUnits="userSpaceOnUse" gradientTransform="translate(420 920) rotate(90) scale(500 560)">
      <stop stop-color="#A78BFA" stop-opacity="0.38"/>
      <stop offset="1" stop-color="#A78BFA" stop-opacity="0"/>
    </radialGradient>
    <linearGradient id="line" x1="0" y1="0" x2="1" y2="1">
      <stop offset="0" stop-color="#FFFFFF" stop-opacity="0.7"/>
      <stop offset="1" stop-color="#FFFFFF" stop-opacity="0.08"/>
    </linearGradient>
  </defs>

  <rect width="1200" height="1600" fill="url(#bg)"/>
  <rect width="1200" height="1600" fill="url(#glowA)"/>
  <rect width="1200" height="1600" fill="url(#glowB)"/>

  <g opacity="0.82">
    <rect x="130" y="210" width="940" height="1180" rx="44" stroke="url(#line)" stroke-width="2"/>
    <rect x="180" y="300" width="840" height="210" rx="22" fill="#FFFFFF" fill-opacity="0.05"/>
    <rect x="180" y="550" width="560" height="24" rx="12" fill="#FFFFFF" fill-opacity="0.24"/>
    <rect x="180" y="600" width="760" height="18" rx="9" fill="#FFFFFF" fill-opacity="0.15"/>
    <rect x="180" y="710" width="840" height="300" rx="26" fill="#FFFFFF" fill-opacity="0.04"/>
    <rect x="220" y="760" width="250" height="200" rx="18" fill="#FFFFFF" fill-opacity="0.07"/>
    <rect x="500" y="760" width="230" height="124" rx="16" fill="#FFFFFF" fill-opacity="0.09"/>
    <rect x="760" y="760" width="220" height="180" rx="16" fill="#FFFFFF" fill-opacity="0.06"/>
    <rect x="500" y="900" width="480" height="60" rx="16" fill="#FFFFFF" fill-opacity="0.12"/>
    <rect x="180" y="1060" width="500" height="18" rx="9" fill="#FFFFFF" fill-opacity="0.16"/>
    <rect x="180" y="1100" width="420" height="18" rx="9" fill="#FFFFFF" fill-opacity="0.12"/>
  </g>

  <circle cx="970" cy="220" r="140" fill="#FFFFFF" fill-opacity="0.06"/>
  <circle cx="260" cy="1260" r="180" fill="#FFFFFF" fill-opacity="0.04"/>
</svg>
